<svg width="440" height="190" viewBox="0 0 440 190" fill="none" xmlns="http://www.w3.org/2000/svg">
<path d="M402.718 187.976V30.1066H384.609V2.02405H440V30.1066H421.892V187.976H402.718Z" fill="#FAF9F6"/>
<path d="M350.985 190C345.54 190 340.895 188.271 337.048 184.814C333.261 181.272 330.361 176.465 328.349 170.393C326.396 164.321 325.42 157.448 325.42 149.774V40.2264C325.42 32.6365 326.426 25.8056 328.438 19.7337C330.509 13.6618 333.468 8.85486 337.314 5.31291C341.161 1.77097 345.718 0 350.985 0C354.95 0 358.5 1.05415 361.637 3.16245C364.773 5.27074 367.436 8.1802 369.626 11.8908C371.874 15.5171 373.591 19.7759 374.774 24.6671C375.958 29.474 376.549 34.6604 376.549 40.2264V65.779H358.619V40.2264C358.619 36.3471 358.056 33.1003 356.932 30.486C355.808 27.8717 353.943 26.5646 351.34 26.5646C348.973 26.5646 347.256 27.9139 346.191 30.6125C345.126 33.3111 344.593 36.5158 344.593 40.2264V149.774C344.593 153.484 345.156 156.689 346.28 159.387C347.464 162.086 349.15 163.435 351.34 163.435C354.003 163.435 355.867 162.128 356.932 159.514C358.056 156.9 358.619 153.653 358.619 149.774V124.221H376.549V149.774C376.549 157.364 375.514 164.194 373.443 170.266C371.371 176.338 368.413 181.145 364.566 184.687C360.779 188.229 356.251 190 350.985 190Z" fill="#FAF9F6"/>
<path d="M268.228 187.976V2.02405H312.078V30.1066H287.401V80.1998H305.155V107.523H287.401V159.894H312.078V187.976H268.228Z" fill="#FAF9F6"/>
<path d="M198.185 187.976V2.02405H216.116L233.87 98.9215L235.467 107.523H236.533V2.02405H254.109V187.976H237.953L218.424 91.0786L216.826 82.4768H215.761V187.976H198.185Z" fill="#FAF9F6"/>
<path d="M128.143 187.976V2.02405H146.074L163.827 98.9215L165.425 107.523H166.49V2.02405H184.066V187.976H167.91L148.382 91.0786L146.784 82.4768H145.719V187.976H128.143Z" fill="#FAF9F6"/>
<path d="M89.1926 190C83.8666 190 79.2803 188.229 75.4337 184.687C71.6463 181.145 68.717 176.338 66.6458 170.266C64.6337 164.194 63.6277 157.364 63.6277 149.774V40.2264C63.6277 32.5521 64.6337 25.7213 66.6458 19.7337C68.717 13.6618 71.6463 8.85486 75.4337 5.31291C79.2803 1.77097 83.8666 0 89.1926 0C94.5186 0 99.0753 1.77097 102.863 5.31291C106.709 8.85486 109.639 13.6618 111.651 19.7337C113.722 25.8056 114.758 32.6365 114.758 40.2264V149.774C114.758 157.364 113.722 164.194 111.651 170.266C109.639 176.338 106.709 181.145 102.863 184.687C99.0753 188.229 94.5186 190 89.1926 190ZM89.1926 163.435C91.5597 163.435 93.2167 162.044 94.1635 159.261C95.1104 156.394 95.5838 153.231 95.5838 149.774V40.2264C95.5838 36.7687 95.0808 33.6485 94.0748 30.8655C93.0688 27.9982 91.4414 26.5646 89.1926 26.5646C87.003 26.5646 85.3756 27.9982 84.3104 30.8655C83.3044 33.6485 82.8014 36.7687 82.8014 40.2264V149.774C82.8014 153.231 83.3044 156.394 84.3104 159.261C85.3164 162.044 86.9438 163.435 89.1926 163.435Z" fill="#FAF9F6"/>
<path d="M25.5649 190C20.1205 190 15.4751 188.271 11.6285 184.814C7.84109 181.272 4.94137 176.465 2.92931 170.393C0.976438 164.321 0 157.448 0 149.774V40.2264C0 32.6365 1.00603 25.8056 3.01808 19.7337C5.08931 13.6618 8.04821 8.85486 11.8948 5.31291C15.7414 1.77097 20.2981 0 25.5649 0C29.5298 0 33.0805 1.05415 36.217 3.16245C39.3534 5.27074 42.0164 8.1802 44.206 11.8908C46.4548 15.5171 48.1709 19.7759 49.3545 24.6671C50.538 29.474 51.1298 34.6604 51.1298 40.2264V65.779H33.1989V40.2264C33.1989 36.3471 32.6367 33.1003 31.5123 30.486C30.3879 27.8717 28.5238 26.5646 25.92 26.5646C23.5529 26.5646 21.8367 27.9139 20.7715 30.6125C19.7063 33.3111 19.1737 36.5158 19.1737 40.2264V149.774C19.1737 153.484 19.7359 156.689 20.8603 159.387C22.0438 162.086 23.7304 163.435 25.92 163.435C28.583 163.435 30.4471 162.128 31.5123 159.514C32.6367 156.9 33.1989 153.653 33.1989 149.774V124.221H51.1298V149.774C51.1298 157.364 50.0942 164.194 48.023 170.266C45.9517 176.338 42.9928 181.145 39.1463 184.687C35.3589 188.229 30.8318 190 25.5649 190Z" fill="#FAF9F6"/>
</svg>
