<svg width="440" height="190" viewBox="0 0 440 190" fill="none" xmlns="http://www.w3.org/2000/svg">
<path d="M418.599 190C403.154 190 395.683 172.437 395.078 131.381L410.523 126.134C410.725 150.084 413.147 158.98 417.69 158.98C421.425 158.98 422.233 151.909 422.233 145.522C422.233 130.24 418.801 121.116 413.248 110.396L406.182 96.4826C399.923 84.6219 395.179 70.7083 395.179 48.3553C395.179 17.1068 403.961 0 418.094 0C435.558 0 438.082 30.7923 438.385 52.461L422.839 56.7947C422.637 40.3721 422.132 29.8799 417.488 29.8799C414.157 29.8799 412.643 37.8631 412.643 44.2497C412.643 57.9352 415.772 65.2341 420.517 74.5858L427.28 88.0432C434.347 101.729 440 117.923 440 143.469C440 169.7 431.621 190 418.599 190Z" fill="#FAF9F6"/>
<path d="M359.31 187.263V32.8451H346.995V2.50891H389.696V32.8451H377.481V187.263H359.31Z" fill="#FAF9F6"/>
<path d="M318.479 190C299.803 190 293.948 165.822 293.948 128.415V61.8127C293.948 23.4934 299.803 0 318.479 0C336.549 0 342 21.8968 342 53.3734V69.3397H324.334V50.8643C324.334 40.1441 324.233 28.7395 318.479 28.7395C312.725 28.7395 312.22 40.3721 312.22 51.5486V138.451C312.22 150.996 313.129 161.032 318.479 161.032C324.132 161.032 324.334 149.628 324.334 138.451V119.064H342V135.03C342 166.507 336.751 190 318.479 190Z" fill="#FAF9F6"/>
<path d="M259.334 190C240.456 190 235.106 168.787 235.106 130.012V2.50891H252.974V136.17C252.974 147.803 253.58 160.576 259.334 160.576C265.088 160.576 265.593 147.803 265.593 136.17V2.50891H283.561V130.012C283.561 168.787 278.11 190 259.334 190Z" fill="#FAF9F6"/>
<path d="M176.562 187.263V2.50891H197.257C218.557 2.50891 224.715 19.8439 224.715 60.9003V127.959C224.715 169.472 218.557 187.263 197.458 187.263H176.562ZM194.632 158.98H197.458C205.635 158.98 206.14 150.996 206.14 134.346V53.8294C206.14 37.635 205.332 31.0203 197.358 31.0203H194.632V158.98Z" fill="#FAF9F6"/>
<path d="M140.832 190C122.46 190 116.302 167.191 116.302 129.1V60.4442C116.302 22.3529 122.46 0 140.832 0C159.306 0 165.565 22.3529 165.565 60.4442V129.1C165.565 167.191 159.306 190 140.832 190ZM140.832 161.032C146.485 161.032 147.091 149.856 147.091 139.364V50.4082C147.091 39.4598 146.485 28.7395 140.832 28.7395C135.482 28.7395 134.775 39.4598 134.775 50.4082V139.364C134.775 149.856 135.179 161.032 140.832 161.032Z" fill="#FAF9F6"/>
<path d="M57.6709 187.263V2.50891H80.1825C96.6372 2.50891 107.338 12.5449 107.338 51.3204C107.338 74.1296 105.42 89.1836 97.3438 97.8511L108.549 187.263H89.8736L80.8892 104.466H75.7408V187.263H57.6709ZM75.7408 80.9723H80.7882C88.3594 80.9723 90.5803 71.3925 90.5803 54.9699C90.5803 39.2316 88.4603 29.8799 81.5958 29.8799H75.7408V80.9723Z" fill="#FAF9F6"/>
<path d="M0 187.263V2.50891H27.4581C42.0957 2.50891 48.9602 21.8967 48.9602 56.1104C48.9602 98.7634 38.5625 108.799 25.3382 108.799H18.0699V187.263H0ZM18.0699 80.288H24.1268C30.7894 80.288 32.0008 72.3048 32.0008 55.4261C32.0008 41.5125 31.2942 31.2484 24.0259 31.2484H18.0699V80.288Z" fill="#FAF9F6"/>
</svg>
