<svg width="440" height="190" viewBox="0 0 440 190" fill="none" xmlns="http://www.w3.org/2000/svg">
<path d="M388.212 187.976V2.0238H440V30.1064H410.856V80.1996H431.823V107.523H410.856V159.893H440V187.976H388.212Z" fill="white"/>
<path d="M326.376 187.976V2.0238H349.021V162.676H379.003V187.976H326.376Z" fill="white"/>
<path d="M286.859 187.976V2.0238H309.503V187.976H286.859Z" fill="white"/>
<path d="M223.795 187.976V2.0238H277.68V30.1064H246.439V78.9346H267.406V107.017H246.439V187.976H223.795Z" fill="white"/>
<path d="M177.794 190C171.504 190 166.088 188.229 161.545 184.687C157.072 181.145 153.613 176.338 151.167 170.266C148.79 164.194 147.602 157.364 147.602 149.774V40.2264C147.602 32.5521 148.79 25.7213 151.167 19.7337C153.613 13.6618 157.072 8.85486 161.545 5.31291C166.088 1.77097 171.504 0 177.794 0C184.084 0 189.466 1.77097 193.939 5.31291C198.482 8.85486 201.941 13.6618 204.317 19.7337C206.763 25.8056 207.986 32.6365 207.986 40.2264V149.774C207.986 157.364 206.763 164.194 204.317 170.266C201.941 176.338 198.482 181.145 193.939 184.687C189.466 188.229 184.084 190 177.794 190ZM177.794 163.435C180.59 163.435 182.547 162.044 183.665 159.261C184.783 156.394 185.342 153.231 185.342 149.774V40.2264C185.342 36.7687 184.748 33.6485 183.56 30.8655C182.372 27.9982 180.45 26.5646 177.794 26.5646C175.208 26.5646 173.287 27.9982 172.029 30.8655C170.84 33.6485 170.246 36.7687 170.246 40.2264V149.774C170.246 153.231 170.84 156.394 172.029 159.261C173.217 162.044 175.139 163.435 177.794 163.435Z" fill="white"/>
<path d="M73.7112 187.976V2.0238H96.3553C109.914 2.0238 119.908 6.57773 126.338 15.6856C132.767 24.7091 135.982 38.0336 135.982 55.659C135.982 66.1161 134.445 75.1818 131.37 82.856C128.364 90.4459 124.695 96.0118 120.362 99.5537L135.773 187.976H113.129L100.339 109.547H96.3553V187.976H73.7112ZM96.3553 84.2475C100.549 84.2475 103.868 83.1512 106.314 80.9586C108.761 78.6816 110.508 75.477 111.556 71.3447C112.604 67.2124 113.129 62.3212 113.129 56.6709C113.129 47.8161 111.906 41.0274 109.459 36.3048C107.083 31.4978 102.715 29.0944 96.3553 29.0944V84.2475Z" fill="white"/>
<path d="M0 187.976V2.0238H22.6441C31.2404 2.0238 38.4041 4.30077 44.135 8.8547C49.9358 13.4086 54.2689 19.86 57.1344 28.2089C59.9998 36.5578 61.4325 46.3824 61.4325 57.6829C61.4325 68.9834 59.9299 78.7238 56.9247 86.904C53.9195 95.0842 49.5164 101.493 43.7156 106.132C37.9847 110.686 30.9609 113.173 22.6441 113.595V187.976H0ZM22.6441 85.7655C26.6278 85.7655 29.7728 84.8378 32.0791 82.9825C34.3854 81.0429 36.0278 78.0069 37.0063 73.8747C38.0546 69.7424 38.5788 64.4295 38.5788 57.9359C38.5788 51.358 38.0546 46.0029 37.0063 41.8707C36.0278 37.7384 34.3505 34.7024 31.9743 32.7628C29.6679 30.8232 26.5579 29.8534 22.6441 29.8534V85.7655Z" fill="white"/>
</svg>
