<svg width="440" height="190" viewBox="0 0 440 190" fill="none" xmlns="http://www.w3.org/2000/svg">
<path d="M390.15 187.976V2.0238H440V30.1064H411.947V80.1996H432.129V107.523H411.947V159.893H440V187.976H390.15Z" fill="#FAF9F6"/>
<path d="M316.634 187.976V2.0238H338.835C346.369 2.0238 352.861 3.71044 358.311 7.08372C363.827 10.3727 368.065 15.5591 371.025 22.643C374.053 29.7269 375.566 38.8769 375.566 50.093C375.566 59.0322 374.625 66.8329 372.741 73.4952C370.925 80.1574 367.359 85.5968 362.044 89.8134C367.426 93.524 371.295 99.4273 373.649 107.523C376.004 115.535 377.181 124.811 377.181 135.353C377.181 145.726 375.836 154.876 373.145 162.803C370.521 170.73 366.619 176.928 361.439 181.398C356.326 185.783 350.002 187.976 342.468 187.976H316.634ZM338.431 160.905C345.024 160.905 349.363 158.46 351.449 153.568C353.534 148.593 354.577 141.509 354.577 132.317C354.577 122.956 353.534 115.872 351.449 111.065C349.363 106.174 345.024 103.728 338.431 103.728V160.905ZM338.431 78.6816C344.553 78.6816 348.758 76.5733 351.045 72.3567C353.4 68.1401 354.577 61.8995 354.577 53.635C354.577 45.2861 353.366 39.1299 350.944 35.1663C348.59 31.1183 344.419 29.0944 338.431 29.0944V78.6816Z" fill="#FAF9F6"/>
<path d="M233.651 187.976L256.053 2.0238H282.694L305.096 187.976H283.904L279.868 150.026H258.878L254.842 187.976H233.651ZM261.906 121.185H276.841L270.584 58.6949L269.979 48.8281H268.768L268.162 58.6949L261.906 121.185Z" fill="#FAF9F6"/>
<path d="M157.931 187.976L137.95 2.0238H158.133L166.811 98.6683L167.215 104.74H168.829L169.435 98.6683L178.719 2.0238H194.461L203.745 98.6683L204.35 104.74H205.965L206.368 98.6683L215.047 2.0238H235.229L215.248 187.976H198.295L188.204 99.9332L186.993 89.0544H186.186L184.975 99.9332L174.884 187.976H157.931Z" fill="#FAF9F6"/>
<path d="M68.093 187.976L90.4953 2.0238H117.136L139.538 187.976H118.347L114.31 150.026H93.3208L89.2844 187.976H68.093ZM96.3482 121.185H111.283L105.027 58.6949L104.421 48.8281H103.21L102.605 58.6949L96.3482 121.185Z" fill="#FAF9F6"/>
<path d="M30.677 190C24.6896 190 19.7113 188.777 15.7422 186.332C11.773 183.802 8.64473 180.175 6.35741 175.453C4.07009 170.73 2.42187 165.038 1.41276 158.375C0.470919 151.713 0 144.208 0 135.859L21.3932 133.329C21.3932 137.377 21.4941 141.298 21.6959 145.093C21.965 148.804 22.4023 152.177 23.0078 155.213C23.6805 158.165 24.6224 160.526 25.8333 162.297C27.1115 164.068 28.7261 164.953 30.677 164.953C33.9062 164.953 36.1935 163.098 37.539 159.387C38.8845 155.593 39.5572 151.039 39.5572 145.726C39.5572 140.413 38.4472 134.889 36.2271 129.154C34.0071 123.42 31.3498 117.98 28.2552 112.836C23.0078 104.066 18.3995 95.9276 14.4303 88.4221C10.5284 80.9166 7.46744 73.5375 5.24739 66.2849C3.09461 59.0324 2.01823 51.4425 2.01823 43.5153C2.01823 37.2747 2.65733 31.5402 3.93554 26.3116C5.21375 20.9987 7.06379 16.4026 9.48566 12.5233C11.9748 8.5597 14.9685 5.48158 18.4668 3.28895C21.965 1.09632 25.9678 0 30.4752 0C36.059 0 40.7682 1.18065 44.6028 3.54194C48.5047 5.90324 51.6329 9.27652 53.9875 13.6618C56.4094 18.047 58.1585 23.2756 59.2349 29.3475C60.3786 35.3351 60.9504 41.9973 60.9504 49.3342L39.5572 51.8642C39.5572 48.7439 39.4227 45.6236 39.1536 42.5033C38.9518 39.2987 38.5481 36.3893 37.9426 33.775C37.3372 31.1607 36.4626 29.0524 35.3189 27.4501C34.1753 25.8478 32.6953 25.0466 30.8789 25.0466C28.0533 25.0466 26.1024 26.5646 25.026 29.6005C23.9496 32.5522 23.4114 36.7688 23.4114 42.2503C23.4114 49.3342 24.9251 56.1651 27.9524 62.743C30.9798 69.3209 35.0499 76.9951 40.1627 85.7656C46.2846 96.1385 51.2629 105.668 55.0976 114.354C58.9995 123.04 60.9504 132.654 60.9504 143.196C60.9504 149.858 60.3786 156.056 59.2349 161.791C58.0913 167.441 56.2749 172.375 53.7857 176.591C51.3638 180.808 48.2356 184.097 44.401 186.458C40.6336 188.819 36.059 190 30.677 190Z" fill="#FAF9F6"/>
</svg>
