<svg width="228" height="198" viewBox="0 0 228 198" fill="none" xmlns="http://www.w3.org/2000/svg">
<g filter="url(#filter0_d_15_32)">
<path d="M186.773 190C182.225 190 178.294 186.041 174.981 178.124C171.668 170.207 170.011 158.109 170.011 141.829C170.011 126.106 171.96 113.45 175.858 103.86C179.821 94.2705 185.733 85.9632 193.595 78.9382C196.063 76.7081 198.142 74.7009 199.832 72.9168C201.521 71.1327 202.56 69.4601 202.95 67.899V47.8276C202.95 43.2557 202.625 39.353 201.976 36.1193C201.391 32.774 199.897 31.1014 197.493 31.1014C195.284 31.1014 193.789 32.8855 193.01 36.4538C192.23 39.9105 191.84 44.2593 191.84 49.5002V58.1978H172.155V50.5038C172.155 40.4681 173.292 31.8262 175.566 24.5782C177.905 17.2187 181.056 11.5876 185.019 7.68481C189.047 3.67053 193.595 1.66339 198.662 1.66339C203.535 1.66339 207.758 3.61477 211.331 7.51754C214.904 11.3088 217.666 16.6054 219.615 23.4074C221.629 30.0979 222.636 37.7919 222.636 46.4895V155.544C222.636 163.684 222.766 170.04 223.025 174.612C223.285 179.072 223.61 183.309 224 187.324H204.704C203.86 185.54 203.34 182.919 203.145 179.462C203.015 176.006 202.95 173.72 202.95 172.605H201.586C199.961 177.734 197.882 181.916 195.349 185.149C192.88 188.383 190.021 190 186.773 190ZM194.764 156.882C197.038 156.882 198.954 155.544 200.514 152.868C202.138 150.192 202.95 147.292 202.95 144.17V100.682C198.207 104.139 194.731 109.38 192.523 116.405C190.379 123.318 189.307 131.124 189.307 139.821C189.307 143.613 189.729 147.404 190.573 151.195C191.418 154.986 192.815 156.882 194.764 156.882Z" fill="#FAF9F6"/>
<path d="M128.019 188.493V2.87148H147.515V23.5715C147.901 19.0469 149.092 15.0314 151.086 11.5248C153.081 8.01823 155.494 5.24692 158.325 3.21084C161.221 1.17477 164.116 0.156738 167.011 0.156738V38.1634C166.175 37.5978 165.274 37.2585 164.309 37.1454C163.408 36.9191 162.507 36.806 161.607 36.806C157.36 36.806 153.95 38.8421 151.376 42.9142C148.802 46.9864 147.515 52.529 147.515 59.5421V188.493H128.019Z" fill="#FAF9F6"/>
<path d="M94.276 190C86.569 190 80.5181 185.44 76.1233 176.319C71.7284 167.086 69.5309 155.432 69.5309 141.357V48.7998C69.5309 34.7249 71.7284 23.1271 76.1233 14.0065C80.5181 4.77333 86.569 0.156738 94.276 0.156738C101.919 0.156738 107.938 4.77333 112.333 14.0065C116.792 23.1271 119.021 34.7249 119.021 48.7998V141.357C119.021 155.432 116.792 167.086 112.333 176.319C107.938 185.44 101.919 190 94.276 190ZM94.276 160.274C96.76 160.274 98.4798 158.528 99.4352 155.038C100.391 151.435 100.868 146.874 100.868 141.357V48.7998C100.868 43.1698 100.391 38.6095 99.4352 35.1189C98.4798 31.6284 96.76 29.8831 94.276 29.8831C91.7919 29.8831 90.0722 31.6284 89.1168 35.1189C88.1614 38.6095 87.6837 43.1698 87.6837 48.7998V141.357C87.6837 146.987 88.1614 151.547 89.1168 155.038C90.0722 158.528 91.7919 160.274 94.276 160.274Z" fill="#FAF9F6"/>
<path d="M33.1782 190C27.4833 190 22.7482 188.777 18.973 186.331C15.1978 183.801 12.2224 180.175 10.0468 175.453C7.87123 170.73 6.30354 165.038 5.34373 158.375C4.44791 151.713 4 144.208 4 135.859L24.3479 133.329C24.3479 137.377 24.4439 141.298 24.6359 145.093C24.8918 148.804 25.3077 152.177 25.8836 155.213C26.5235 158.165 27.4193 160.526 28.5711 162.297C29.7868 164.068 31.3225 164.953 33.1782 164.953C36.2495 164.953 38.4251 163.098 39.7048 159.387C40.9846 155.592 41.6245 151.039 41.6245 145.726C41.6245 140.413 40.5687 134.889 38.4571 129.154C36.3455 123.42 33.818 117.98 30.8746 112.836C25.8836 104.066 21.5005 95.9276 17.7253 88.4221C14.014 80.9165 11.1026 73.5375 8.991 66.2849C6.94341 59.0324 5.91962 51.4425 5.91962 43.5153C5.91962 37.2748 6.52749 31.5402 7.74325 26.3116C8.95901 20.9987 10.7187 16.4026 13.0222 12.5233C15.3897 8.55975 18.2371 5.48164 21.5645 3.28901C24.8918 1.09638 28.6991 6.10352e-05 32.9862 6.10352e-05C38.2971 6.10352e-05 42.7762 1.18071 46.4235 3.542C50.1348 5.90329 53.1102 9.27657 55.3497 13.6618C57.6533 18.0471 59.3169 23.2757 60.3407 29.3476C61.4285 35.3351 61.9724 41.9974 61.9724 49.3342L41.6245 51.8642C41.6245 48.7439 41.4965 45.6236 41.2405 42.5033C41.0486 39.2987 40.6647 36.3893 40.0888 33.775C39.5129 31.1607 38.6811 29.0524 37.5933 27.4501C36.5055 25.8478 35.0978 25.0466 33.3701 25.0466C30.6827 25.0466 28.827 26.5646 27.8032 29.6006C26.7794 32.5522 26.2675 36.7688 26.2675 42.2503C26.2675 49.3342 27.7073 56.1651 30.5867 62.743C33.4661 69.3209 37.3373 76.9951 42.2003 85.7656C48.0232 96.1384 52.7582 105.668 56.4055 114.354C60.1168 123.04 61.9724 132.654 61.9724 143.196C61.9724 149.858 61.4285 156.056 60.3407 161.791C59.2529 167.441 57.5253 172.374 55.1578 176.591C52.8542 180.808 49.8788 184.097 46.2315 186.458C42.6483 188.819 38.2971 190 33.1782 190Z" fill="#FAF9F6"/>
</g>
<defs>
<filter id="filter0_d_15_32" x="0" y="6.10352e-05" width="228" height="198" filterUnits="userSpaceOnUse" color-interpolation-filters="sRGB">
<feFlood flood-opacity="0" result="BackgroundImageFix"/>
<feColorMatrix in="SourceAlpha" type="matrix" values="0 0 0 0 0 0 0 0 0 0 0 0 0 0 0 0 0 0 127 0" result="hardAlpha"/>
<feOffset dy="4"/>
<feGaussianBlur stdDeviation="2"/>
<feComposite in2="hardAlpha" operator="out"/>
<feColorMatrix type="matrix" values="0 0 0 0 0 0 0 0 0 0 0 0 0 0 0 0 0 0 0.25 0"/>
<feBlend mode="normal" in2="BackgroundImageFix" result="effect1_dropShadow_15_32"/>
<feBlend mode="normal" in="SourceGraphic" in2="effect1_dropShadow_15_32" result="shape"/>
</filter>
</defs>
</svg>
