<svg width="220" height="190" viewBox="0 0 220 190" fill="none" xmlns="http://www.w3.org/2000/svg">
<path d="M182.773 189.118C178.225 189.118 174.294 185.178 170.981 177.298C167.668 169.417 166.011 157.375 166.011 141.17C166.011 125.521 167.96 112.923 171.858 103.378C175.821 93.8331 181.733 85.5643 189.595 78.572C192.063 76.3522 194.142 74.3543 195.832 72.5785C197.521 70.8027 198.56 69.1378 198.95 67.5839V47.6057C198.95 43.0551 198.625 39.1704 197.976 35.9517C197.391 32.622 195.897 30.9572 193.493 30.9572C191.284 30.9572 189.789 32.733 189.01 36.2847C188.23 39.7254 187.84 44.054 187.84 49.2705V57.9278H168.155V50.2695C168.155 40.2803 169.292 31.6786 171.566 24.4642C173.905 17.1389 177.056 11.5339 181.019 7.64923C185.047 3.65359 189.595 1.65576 194.662 1.65576C199.535 1.65576 203.758 3.59809 207.331 7.48274C210.904 11.2564 213.666 16.5284 215.615 23.2988C217.629 29.9583 218.636 37.6166 218.636 46.2738V154.822C218.636 162.924 218.766 169.251 219.025 173.802C219.285 178.241 219.61 182.459 220 186.454H200.704C199.86 184.679 199.34 182.07 199.145 178.63C199.015 175.189 198.95 172.914 198.95 171.804H197.586C195.961 176.909 193.882 181.071 191.349 184.29C188.88 187.509 186.021 189.118 182.773 189.118ZM190.764 156.154C193.038 156.154 194.954 154.822 196.514 152.158C198.138 149.495 198.95 146.609 198.95 143.501V100.215C194.207 103.656 190.731 108.872 188.523 115.865C186.379 122.746 185.307 130.515 185.307 139.173C185.307 142.946 185.729 146.72 186.573 150.494C187.418 154.267 188.815 156.154 190.764 156.154Z" fill="#FAF9F6"/>
<path d="M124.019 187.618V2.85815H143.515V23.4621C143.901 18.9585 145.092 14.9616 147.086 11.4713C149.081 7.98101 151.494 5.22256 154.325 3.19594C157.221 1.16932 160.116 0.156006 163.011 0.156006V37.9863C162.175 37.4233 161.274 37.0856 160.309 36.973C159.408 36.7478 158.507 36.6352 157.607 36.6352C153.36 36.6352 149.95 38.6618 147.376 42.715C144.802 46.7683 143.515 52.2852 143.515 59.2658V187.618H124.019Z" fill="#FAF9F6"/>
<path d="M90.276 189.118C82.5691 189.118 76.5182 184.579 72.1233 175.501C67.7284 166.31 65.531 154.71 65.531 140.701V48.5733C65.531 34.5637 67.7284 23.0198 72.1233 13.9415C76.5182 4.75117 82.5691 0.156006 90.276 0.156006C97.9193 0.156006 103.938 4.75117 108.333 13.9415C112.792 23.0198 115.021 34.5637 115.021 48.5733V140.701C115.021 154.71 112.792 166.31 108.333 175.501C103.938 184.579 97.9193 189.118 90.276 189.118ZM90.276 159.53C92.7601 159.53 94.4798 157.793 95.4352 154.318C96.3907 150.732 96.8684 146.193 96.8684 140.701V48.5733C96.8684 42.9695 96.3907 38.4303 95.4352 34.956C94.4798 31.4816 92.7601 29.7444 90.276 29.7444C87.792 29.7444 86.0723 31.4816 85.1168 34.956C84.1614 38.4303 83.6837 42.9695 83.6837 48.5733V140.701C83.6837 146.305 84.1614 150.844 85.1168 154.318C86.0723 157.793 87.792 159.53 90.276 159.53Z" fill="#FAF9F6"/>
<path d="M29.1782 189.118C23.4833 189.118 18.7482 187.901 14.973 185.467C11.1978 182.948 8.22235 179.339 6.04679 174.638C3.87123 169.938 2.30354 164.272 1.34373 157.64C0.44791 151.009 0 143.538 0 135.228L20.3479 132.71C20.3479 136.739 20.4439 140.642 20.6359 144.42C20.8918 148.113 21.3077 151.471 21.8836 154.493C22.5235 157.43 23.4193 159.781 24.5711 161.544C25.7868 163.306 27.3225 164.188 29.1782 164.188C32.2495 164.188 34.4251 162.341 35.7048 158.648C36.9846 154.87 37.6245 150.337 37.6245 145.049C37.6245 139.761 36.5687 134.263 34.4571 128.555C32.3455 122.847 29.818 117.433 26.8746 112.312C21.8836 103.583 17.5005 95.4824 13.7253 88.0117C10.014 80.5409 7.10258 73.1961 4.991 65.9773C2.94341 58.7584 1.91962 51.2037 1.91962 43.3133C1.91962 37.1017 2.52749 31.3938 3.74325 26.1894C4.95901 20.9012 6.71866 16.3264 9.02219 12.4652C11.3897 8.51997 14.2371 5.45614 17.5645 3.27368C20.8918 1.09123 24.6991 0 28.9862 0C34.2971 0 38.7762 1.17517 42.4235 3.5255C46.1348 5.87584 49.1102 9.23346 51.3497 13.5984C53.6533 17.9633 55.3169 23.1676 56.3407 29.2113C57.4285 35.1711 57.9724 41.8024 57.9724 49.1052L37.6245 51.6234C37.6245 48.5176 37.4965 45.4118 37.2405 42.306C37.0486 39.1163 36.6647 36.2203 36.0888 33.6182C35.5129 31.016 34.6811 28.9175 33.5933 27.3226C32.5055 25.7278 31.0978 24.9303 29.3701 24.9303C26.6827 24.9303 24.827 26.4413 23.8032 29.4631C22.7794 32.401 22.2675 36.5981 22.2675 42.0542C22.2675 49.1052 23.7073 55.9044 26.5867 62.4518C29.4661 68.9991 33.3373 76.6377 38.2003 85.3675C44.0232 95.6922 48.7582 105.177 52.4055 113.823C56.1168 122.469 57.9724 132.038 57.9724 142.531C57.9724 149.162 57.4285 155.332 56.3407 161.04C55.2529 166.664 53.5253 171.574 51.1578 175.771C48.8542 179.969 45.8788 183.242 42.2315 185.593C38.6483 187.943 34.2971 189.118 29.1782 189.118Z" fill="#FAF9F6"/>
</svg>
